<svg width="65" height="69" viewBox="0 0 65 69" fill="none" xmlns="http://www.w3.org/2000/svg">
<path d="M13.0351 42.0719C13.0351 42.0719 7.13135 43.517 7.13135 46.0463C7.13135 48.5752 20.3324 49.2978 33.9336 49.2978C33.9336 49.2978 58.5359 49.4786 60.536 45.3238C60.536 45.3238 60.6465 42.4336 51.646 41.3499" stroke="#29100A" stroke-width="0.9375" stroke-miterlimit="10" stroke-linecap="round" stroke-linejoin="round"/>
<path d="M10.651 42.8647C10.651 42.8647 4.08195 44.8266 4.68178 49.8847C5.28198 54.9422 15.4828 65.4198 15.4828 65.4198C15.4828 65.4198 32.1591 71.1549 53.1862 65.4198C53.1862 65.4198 63.3868 54.9427 63.9873 49.8847C64.5872 44.827 58.0561 42.9091 58.0561 42.9091" stroke="#29100A" stroke-width="0.9375" stroke-miterlimit="10" stroke-linecap="round" stroke-linejoin="round"/>
<path d="M4.93164 49.2979C4.93164 49.2979 8.13194 53.2719 27.4336 53.7234" stroke="#29100A" stroke-width="0.9375" stroke-miterlimit="10" stroke-linecap="round" stroke-linejoin="round"/>
<path d="M63.7369 49.3877C63.7369 49.3877 60.5364 53.3618 41.2349 53.8133" stroke="#29100A" stroke-width="0.9375" stroke-miterlimit="10" stroke-linecap="round" stroke-linejoin="round"/>
<path d="M7.53125 55.6199C7.53125 55.6199 30.5334 61.2197 61.1363 55.6199" stroke="#29100A" stroke-width="0.9375" stroke-miterlimit="10" stroke-linecap="round" stroke-linejoin="round"/>
<path d="M11.75 61.4058C18.8687 62.6152 35.5924 64.6158 56.5256 61.5226" stroke="#29100A" stroke-width="0.9375" stroke-miterlimit="10" stroke-linecap="round" stroke-linejoin="round"/>
<path d="M29.8335 53.8138C29.8335 53.8138 34.634 54.1748 39.0344 53.7234" stroke="#29100A" stroke-width="0.9375" stroke-miterlimit="10" stroke-linecap="round" stroke-linejoin="round"/>
<path d="M15.1323 57.1555L20.9829 62.4387" stroke="#29100A" stroke-width="0.9375" stroke-miterlimit="10" stroke-linecap="round" stroke-linejoin="round"/>
<path d="M20.5832 57.5164L15.7329 61.9871" stroke="#29100A" stroke-width="0.9375" stroke-miterlimit="10" stroke-linecap="round" stroke-linejoin="round"/>
<path d="M25.9453 58.0583L31.721 63.1053" stroke="#29100A" stroke-width="0.9375" stroke-miterlimit="10" stroke-linecap="round" stroke-linejoin="round"/>
<path d="M31.5842 58.2844L26.5088 62.9021" stroke="#29100A" stroke-width="0.9375" stroke-miterlimit="10" stroke-linecap="round" stroke-linejoin="round"/>
<path d="M37.3076 58.0603L42.6348 62.7324" stroke="#29100A" stroke-width="0.9375" stroke-miterlimit="10" stroke-linecap="round" stroke-linejoin="round"/>
<path d="M42.6589 58.0593L37.5093 62.8911" stroke="#29100A" stroke-width="0.9375" stroke-miterlimit="10" stroke-linecap="round" stroke-linejoin="round"/>
<path d="M45.5854 57.6523L50.6856 62.2584" stroke="#29100A" stroke-width="0.9375" stroke-miterlimit="10" stroke-linecap="round" stroke-linejoin="round"/>
<path d="M51.1851 57.3362L45.3345 62.6194" stroke="#29100A" stroke-width="0.9375" stroke-miterlimit="10" stroke-linecap="round" stroke-linejoin="round"/>
<path d="M26.9361 49.2262C27.3319 47.8947 26.2985 46.1668 24.8667 45.6884C23.4354 45.2101 21.8552 45.3669 20.3318 45.449C18.2271 45.5626 15.8914 45.4447 14.3665 44.1293C12.8075 42.7847 12.6674 40.3193 14.0664 38.8377C15.4654 37.3561 18.183 37.0913 19.8996 38.269" stroke="#29100A" stroke-width="0.9375" stroke-miterlimit="10" stroke-linecap="round" stroke-linejoin="round"/>
<path d="M29.292 29.3803C31.6607 28.6687 34.53 29.881 35.4431 31.9795C35.9629 33.1739 36.0869 34.7613 37.4001 35.2518C38.6354 35.7133 39.9402 34.8057 41.2584 34.6053C42.8819 34.3585 44.5755 35.3211 45.203 36.6956C45.8301 38.0701 45.454 39.7281 44.4249 40.8884C43.3958 42.0487 41.7902 42.7281 40.1541 42.8903C39.0304 43.0017 37.5671 42.618 37.4859 41.5999C37.4226 40.8043 38.2811 40.2116 39.0901 39.8914" stroke="#29100A" stroke-width="0.9375" stroke-miterlimit="10" stroke-linecap="round" stroke-linejoin="round"/>
<path d="M45.3874 48.8272C45.6136 48.3732 46.0283 47.4898 46.0763 46.9938C46.1243 46.4977 45.957 45.956 45.5179 45.6545C44.3073 44.8236 42.4773 46.3969 41.1198 45.7783C40.7829 45.6249 40.5297 45.3506 40.3453 45.0533C39.9881 44.4774 39.8601 43.7885 39.9899 43.1387" stroke="#29100A" stroke-width="0.9375" stroke-miterlimit="10" stroke-linecap="round" stroke-linejoin="round"/>
<path d="M15.0368 37.904C13.039 37.2085 12.2311 34.5019 13.0139 32.7023C13.7967 30.9024 15.6115 29.6482 17.4496 28.6567C19.2876 27.6653 21.2679 26.816 22.7608 25.4297C24.9309 23.4143 25.7723 20.5609 27.1196 18.0267C27.7122 16.9121 28.4135 15.8451 29.2123 14.8412C29.5899 14.3668 29.9991 13.8983 30.5364 13.5725C31.9736 12.7009 34.0779 13.1277 35.2237 14.2994C36.3696 15.4712 36.6402 17.1946 36.2502 18.7179C35.8603 20.2409 34.8873 21.5921 33.7851 22.7974C32.8874 23.7793 31.8728 24.7172 31.3523 25.9008C30.8317 27.0844 30.9347 27.9823 31.6349 29.2467" stroke="#29100A" stroke-width="0.9375" stroke-miterlimit="10" stroke-linecap="round" stroke-linejoin="round"/>
<path d="M43.9443 13.282C43.1658 13.0018 42.5627 12.3764 42.3117 11.6543C42.1389 11.1579 42.1375 10.58 42.4707 10.1556C42.6594 9.91544 42.937 9.74529 43.1564 9.52715C43.7897 8.89676 43.8548 7.972 43.9457 7.12511C44.2069 4.69115 45.1294 2.07718 47.4316 0.79007C47.8281 0.568325 48.3042 0.388628 48.7524 0.505582C49.1474 0.608729 49.4297 0.920487 49.6414 1.23882C50.4496 2.45267 50.5741 4.01704 49.9662 5.32254C49.593 6.12445 48.9677 6.82123 48.6498 7.64249C48.2919 8.56824 48.3512 9.57741 48.1929 10.5472C47.9114 12.2748 46.0366 14.035 43.9443 13.282Z" stroke="#29100A" stroke-width="0.9375" stroke-miterlimit="10" stroke-linecap="round" stroke-linejoin="round"/>
<path d="M27.4827 33.2656C26.8545 34.4144 27.1586 35.9203 28.1953 36.7948C27.3074 36.7436 26.402 36.716 25.5421 36.922C24.6822 37.1279 23.8615 37.6013 23.472 38.3234C23.0828 39.0458 23.2363 40.0264 23.9554 40.4994C24.3915 40.7866 24.9575 40.8569 25.4973 40.8582C26.4224 40.8608 27.3478 40.6861 28.1939 40.3487" stroke="#29100A" stroke-width="0.9375" stroke-miterlimit="10" stroke-linecap="round" stroke-linejoin="round"/>
<path d="M33.1029 41.688C32.6576 42.4915 32.9563 43.5701 33.7678 44.0898C34.244 44.3946 34.8354 44.5073 35.3629 44.7333C35.8903 44.9593 36.3981 45.3791 36.3898 45.9064C36.3796 46.5428 35.6473 46.9613 34.9722 47.1429C34.2971 47.3246 33.5354 47.4215 33.0618 47.8923C32.7712 48.181 32.6704 48.9133 32.7351 49.2989" stroke="#29100A" stroke-width="0.9375" stroke-miterlimit="10" stroke-linecap="round" stroke-linejoin="round"/>
<path d="M30.691 20.9373C30.6681 22.7105 29.8656 24.45 28.5652 25.7789C27.2648 27.1077 25.4868 28.0298 23.5847 28.4707C23.0212 28.6011 22.4356 28.6947 21.93 28.9546C21.2268 29.3159 20.739 29.9986 20.6644 30.7259C20.5899 31.4532 20.9304 32.2055 21.548 32.6773" stroke="#29100A" stroke-width="0.9375" stroke-miterlimit="10" stroke-linecap="round" stroke-linejoin="round"/>
<path d="M37.4014 35.2521C37.4014 35.2521 51.7865 14.9767 59.4372 12.5378C67.0879 10.0993 48.1864 48.7105 48.1864 48.7105" stroke="#29100A" stroke-width="0.9375" stroke-miterlimit="10" stroke-linecap="round" stroke-linejoin="round"/>
<path d="M3.02696 44.865C3.11655 45.209 3.23339 45.5845 3.38623 45.966C3.82865 47.0703 4.58806 48.2635 5.87532 48.8608C5.58877 48.9533 5.27183 49.0903 4.95341 49.2934C4.12522 49.8217 3.3218 50.7737 2.98721 52.4584C2.88551 52.1391 2.75794 51.7919 2.598 51.4392C2.10905 50.3606 1.30232 49.1881 0 48.6151C0.306826 48.5005 0.658788 48.3304 1.01587 48.0752C1.81719 47.5023 2.62132 46.5225 3.02696 44.865Z" fill="#29100A"/>
<path d="M46.0318 19.0339C46.1214 19.378 46.2383 19.7534 46.3911 20.135C46.8335 21.2393 47.5929 22.4325 48.8802 23.0298C48.5936 23.1223 48.2767 23.2593 47.9582 23.4623C47.13 23.9907 46.3267 24.9426 45.9921 26.6271C45.8904 26.308 45.7628 25.961 45.6029 25.6082C45.1139 24.5296 44.307 23.3571 43.0049 22.7841C43.3117 22.6695 43.6637 22.4994 44.0207 22.2441C44.822 21.6712 45.6262 20.6914 46.0318 19.0339Z" fill="#29100A"/>
<path d="M61.1463 59.4797C61.2361 59.8238 61.353 60.1991 61.5057 60.5808C61.9481 61.685 62.7077 62.8785 63.9948 63.4758C63.7083 63.5683 63.3912 63.7052 63.073 63.9082C62.2447 64.4363 61.4412 65.3882 61.1066 67.0728C61.0052 66.7536 60.8772 66.4068 60.7176 66.0542C60.2287 64.9754 59.4215 63.803 58.1196 63.23C58.4262 63.1153 58.7782 62.9451 59.1356 62.6898C59.9369 62.1174 60.7409 61.1374 61.1463 59.4797Z" fill="#29100A"/>
<path d="M17.2316 39.832C16.2633 40.4142 16.4804 41.8711 17.3742 42.5436C18.2679 43.216 19.5261 43.2991 20.6891 43.2735C21.915 43.2466 23.143 43.1336 24.3648 43.2252C25.5867 43.3169 26.8307 43.6345 27.7557 44.3615C29.0798 45.4022 29.4218 47.6848 29.4523 49.2698" stroke="#29100A" stroke-width="0.9375" stroke-miterlimit="10" stroke-linecap="round" stroke-linejoin="round"/>
<path d="M17.1162 37.3702C16.3621 36.8653 15.9191 35.7174 15.8147 34.8751C15.6361 33.4376 16.6284 31.9465 18.1176 31.4143" stroke="#29100A" stroke-width="0.9375" stroke-miterlimit="10" stroke-linecap="round" stroke-linejoin="round"/>
<path d="M28.9595 31.5917C30.3465 31.4701 31.7789 32.1629 32.4355 33.273C32.7651 33.8305 32.908 34.4668 33.2518 35.017C33.7832 35.8672 34.7621 36.4382 35.8024 36.703C36.8431 36.9678 37.9464 36.9549 39.0217 36.8551C39.7008 36.792 40.3996 36.6961 41.0565 36.8636C42.2478 37.1675 43.0252 38.4234 42.688 39.4989C42.3511 40.5745 40.9605 41.2762 39.7696 40.9717" stroke="#29100A" stroke-width="0.9375" stroke-miterlimit="10" stroke-linecap="round" stroke-linejoin="round"/>
<path d="M35.1709 41.8047C35.2349 42.535 35.8701 43.1122 36.5157 43.5554C37.1614 43.9985 37.8842 44.4062 38.2712 45.0497C38.7412 45.8316 38.5724 46.8848 37.8758 47.5142C37.4866 47.8657 37.0118 48.8033 37.2032 49.2698" stroke="#29100A" stroke-width="0.9375" stroke-miterlimit="10" stroke-linecap="round" stroke-linejoin="round"/>
<path d="M24.0866 32.8567C23.9292 32.3781 23.4283 32.0072 23.3988 31.5085C23.3675 30.9783 23.9008 30.5463 24.4577 30.3758C25.0146 30.2053 25.6195 30.2105 26.1877 30.0745C26.7562 29.9385 27.3346 29.5907 27.4219 29.0657" stroke="#29100A" stroke-width="0.9375" stroke-miterlimit="10" stroke-linecap="round" stroke-linejoin="round"/>
<path d="M63.0367 12.1313C63.0367 12.1313 64.9867 15.4506 58.9111 28.7951" stroke="#29100A" stroke-width="0.9375" stroke-miterlimit="10" stroke-linecap="round" stroke-linejoin="round"/>
<path d="M43.8887 11.318C44.0164 11.6462 44.4696 11.8009 44.8439 11.7194C45.2182 11.6379 45.514 11.3758 45.7278 11.0864C46.8431 9.57618 46.1105 7.38304 47.228 5.87451C47.5135 5.48886 47.9035 5.1761 48.2257 4.81476C48.548 4.45337 48.811 4.01089 48.7688 3.54834" stroke="#29100A" stroke-width="0.9375" stroke-miterlimit="10" stroke-linecap="round" stroke-linejoin="round"/>
<path d="M54.7075 15.4539C54.9438 16.4887 55.6458 17.4302 56.6178 18.0175C57.5904 18.6049 58.8215 18.8312 59.9706 18.6338C60.0536 18.6194 60.5917 18.4781 60.5367 18.4203" stroke="#29100A" stroke-width="0.9375" stroke-miterlimit="10" stroke-linecap="round" stroke-linejoin="round"/>
<path d="M52.4414 17.3965C52.9594 18.6777 53.988 19.785 55.2957 20.468C56.6029 21.151 58.1786 21.4046 59.6671 21.1714" stroke="#29100A" stroke-width="0.9375" stroke-miterlimit="10" stroke-linecap="round" stroke-linejoin="round"/>
<path d="M14.093 44.2278C13.3306 44.4065 11.7777 44.7803 11.072 45.0963C10.3663 45.4124 9.71959 45.8782 9.34889 46.5057C9.19396 46.7678 9.09353 47.0973 9.25909 47.3539" stroke="#29100A" stroke-width="0.9375" stroke-miterlimit="10" stroke-linecap="round" stroke-linejoin="round"/>
<path d="M50.5537 43.7217C51.9656 43.992 54.3558 44.7667 55.6159 45.4017C55.8057 45.4973 55.9949 45.5981 56.1503 45.7358C56.6086 46.1434 56.6615 46.8672 56.2666 47.3258" stroke="#29100A" stroke-width="0.9375" stroke-miterlimit="10" stroke-linecap="round" stroke-linejoin="round"/>
</svg>
