<svg width="288" height="110" viewBox="0 0 288 110" fill="none" xmlns="http://www.w3.org/2000/svg">
<path d="M144.365 54.5371C143.749 54.6603 143.298 54.6179 143.052 53.9251C142.928 53.598 142.479 53.3536 142.149 53.2304C141.576 53.0264 140.917 52.9437 140.344 52.782C138.374 52.2509 137.185 50.9441 137.185 49.2699V7.93056C137.185 6.82785 137.636 5.88871 138.579 5.39798C139.565 4.90724 140.671 4.58008 141.739 4.25485C142.436 4.05085 143.298 4.05085 143.257 3.06938C143.217 2.04749 142.271 2.17066 141.615 2.04749C141.493 2.00708 141.328 2.04749 141.204 2.04749C139.069 2.12832 136.894 2.2919 134.762 2.33424C131.765 2.37465 128.77 2.37465 125.774 2.33424C123.844 2.29382 121.874 2.21107 119.945 2.13024C119.372 2.13024 118.756 2.00708 118.221 2.13024C117.894 2.25341 117.359 2.74222 117.4 3.02897C117.441 3.43695 117.851 3.92769 118.221 4.09127C118.795 4.33567 119.534 4.33567 120.191 4.53967C122.572 5.2344 123.474 6.46028 123.474 8.91011V48.3269C123.474 50.6151 122.08 52.3298 119.823 52.8205C119.248 52.9437 118.674 52.9841 118.14 53.2285C117.812 53.3921 117.361 53.8828 117.402 54.1272C117.483 54.4948 117.894 54.8219 118.264 55.0259C118.469 55.1491 118.88 55.0663 119.166 55.0663C121.382 55.0259 123.558 54.9432 125.733 54.9028C126.062 54.9028 126.719 55.1895 126.719 55.3107C126.595 56.6175 127.54 56.7002 128.402 56.9042C128.813 57.0274 129.264 57.1082 129.675 57.2718C132.385 58.2513 134.641 60.4163 134.558 63.89C134.393 70.0175 134.558 76.1854 134.477 82.3532C134.436 85.3342 134.19 88.3171 133.286 91.2173C131.439 97.0176 127.951 100.899 121.59 101.552C116.912 102 113.136 100.449 110.386 96.6096C107.595 92.7299 106.775 88.2363 106.651 83.6619C106.446 76.1449 106.611 68.6299 106.611 61.1149C106.611 59.1943 107.554 57.9703 109.361 57.3564C110.099 57.112 110.839 57.0293 111.536 56.7445C111.906 56.5809 112.398 56.2961 112.563 55.9266C112.85 55.2318 113.26 55.0683 113.917 55.1087C114.328 55.1491 114.779 55.1087 115.23 55.1087C115.804 55.1087 116.462 55.0683 116.544 54.2908C116.625 53.4729 116.011 53.3516 115.354 53.2285C112.236 52.5742 109.896 50.8999 108.42 48.0401C106.574 44.4857 104.726 40.9331 102.839 37.3786C98.5719 29.2497 94.3026 21.1208 89.9947 12.9938C88.6407 10.4208 87.3274 7.84781 85.7681 5.39605C84.2087 2.90388 81.8281 1.63758 78.7928 1.63758C74.3202 1.678 69.8476 1.63758 65.373 1.63758C65.0863 1.63758 64.7977 1.59717 64.5517 1.678C64.265 1.84157 63.8544 2.04557 63.8137 2.28997C63.7304 2.57672 63.8544 3.02512 64.0597 3.26952C64.265 3.51393 64.6757 3.59668 65.0437 3.67751C68.1623 4.41265 70.789 5.84253 72.4296 8.70227C74.6456 12.582 76.8209 16.4636 78.9555 20.3837C79.1608 20.8321 79.2829 21.5269 79.0795 21.9772C77.1909 26.3072 75.3855 30.6373 73.2935 34.8441C71.2829 38.9702 68.6156 42.6863 64.9624 45.5865C61.8844 47.9959 58.4791 48.6906 54.7445 47.5879C51.7479 46.6892 49.4506 44.7281 47.316 42.6055C44.0734 39.3377 41.4894 35.6197 39.3954 31.4956C38.4095 29.6173 38.7388 28.0238 40.4627 26.7575C41.6114 25.8992 42.8027 25.0833 43.992 24.2654C47.07 22.1408 49.4913 19.5274 51.0506 16.096C53.2259 11.3984 52.1179 5.59812 48.424 2.78071C44.6487 -0.0790353 40.3388 -0.487021 35.8662 0.452115C32.2129 1.22767 29.2589 3.27145 26.7563 5.88486C24.581 8.13071 22.733 10.7056 20.765 13.1151C20.6004 13.319 20.395 13.523 20.2323 13.727C20.151 13.727 20.0677 13.6866 19.9863 13.6462C19.9863 12.0932 20.027 10.5421 19.9863 8.98902C19.9457 7.02799 19.289 5.35371 17.7297 4.04701C16.4571 3.02512 14.981 2.57672 13.381 2.5363C9.31908 2.45548 5.29585 2.41314 1.27457 2.33231C1.10992 2.33231 0.904599 2.2919 0.782566 2.37273C0.495884 2.57672 0.00387339 2.82112 0.00387339 3.10787C-0.0368044 3.43503 0.249877 3.88343 0.536558 4.17017C0.782562 4.37416 1.19322 4.37416 1.52251 4.45691C4.68182 5.19206 7.10311 8.09222 7.10311 11.3195V48.5713C7.10311 50.5323 6.15978 51.7986 4.39514 52.4933C3.45181 52.8609 2.38449 53.0649 1.35786 53.3112C0.579171 53.4748 0.331241 54.0464 0.617922 54.5775C0.78257 54.9047 1.4799 55.1491 1.93123 55.1491C6.60917 55.1087 11.289 54.9855 15.9651 54.9855C18.8784 54.9855 21.7529 55.1087 24.6643 55.1895C25.2803 55.2299 25.8129 55.0259 25.8962 54.2908C25.9776 53.5556 25.4449 53.3921 24.8696 53.2689C23.9669 53.0245 22.9829 52.8205 22.1616 52.4106C20.5616 51.5927 20.1917 50.1224 20.1917 48.4481C20.2323 40.402 20.2323 32.3135 20.1917 24.2673C20.151 22.389 20.3156 20.632 21.3403 18.9981C21.7103 18.3438 22.0377 17.651 22.4483 17.0371C24.3776 14.0561 26.7156 11.4812 30.0395 9.97049C32.2148 9.03135 34.2255 9.31617 35.9901 10.8288C39.8468 14.1793 40.3814 20.3048 37.0574 24.1865C35.8255 25.6163 34.3088 26.7999 32.8308 28.0258C31.5989 29.0477 30.2468 29.904 28.9742 30.8855C26.7175 32.6425 26.2662 34.3168 27.7015 36.7667C29.1795 39.3397 30.8202 41.7914 32.5441 44.2008C36.0734 49.1024 40.3 53.1881 45.7586 55.8823C45.9639 56.0055 46.1692 56.2095 46.4559 56.4135C45.8826 56.8214 45.4293 57.1082 44.978 57.393C40.916 60.0064 37.7974 63.4377 35.6628 67.7678C32.9548 73.2409 32.2575 79.0413 32.7901 85.0456C33.2008 89.7836 34.3901 94.2772 36.8521 98.4013C40.6274 104.733 46.2913 108.532 53.4719 109.471C57.4932 110.042 61.7624 110.125 65.8243 109.226C70.8316 108.083 75.5909 106.407 79.6955 103.182C80.8441 102.243 81.5008 101.14 81.4601 99.5887C81.3361 95.6262 81.2954 91.6234 81.2548 87.6609C81.2141 85.4959 82.1981 83.9024 84.1274 82.9633C84.6194 82.7593 85.2354 82.7593 85.6867 82.4745C86.016 82.2705 86.3027 81.7798 86.3027 81.4122C86.3027 81.1678 85.77 80.7175 85.4407 80.677C84.5381 80.5962 83.5947 80.677 82.692 80.7175C79.2034 80.8002 75.7148 80.9619 72.2282 80.9619C68.7415 80.9619 65.3343 80.7579 61.8864 80.6347C61.189 80.5943 60.5324 80.7155 60.5324 81.6143C60.4917 82.4322 61.1483 82.4726 61.7643 82.6766C63.159 83.125 64.5556 83.4521 65.7856 84.1468C67.2229 84.9628 68.2902 86.2714 68.2902 88.1093C68.3309 93.1745 68.2902 98.2397 68.3309 103.305C68.3309 104.123 68.0035 104.531 67.3043 104.898C63.8156 106.655 59.589 105.553 56.7978 103.388C53.5145 100.815 51.4225 97.4237 50.0278 93.5844C47.2772 86.1098 46.6206 78.4716 48.0172 70.6699C48.6332 67.0346 49.9465 63.6437 52.3271 60.7435C53.6404 59.1096 55.283 58.0069 57.4157 57.3949C59.7963 56.7002 62.0529 56.4558 64.4335 57.0678C68.6195 58.1301 71.9008 60.5799 74.5294 63.89C75.7187 65.3603 76.54 67.0769 77.4834 68.7512C77.8107 69.3227 78.0567 69.8943 78.8373 69.7731C79.6586 69.6922 79.494 68.9975 79.5366 68.4259V67.7312C79.4126 63.1568 79.2499 58.54 79.126 53.9655C79.0853 53.8847 79.126 53.7616 79.0853 53.6788C78.88 53.3516 78.634 52.8609 78.388 52.8205C78.0587 52.7801 77.6093 53.0649 77.3207 53.3112C77.0747 53.5556 77.034 53.9232 76.8286 54.21C75.802 55.6398 74.3667 55.3954 72.9313 55.0279C70.6747 54.4967 68.4161 54.006 66.1595 53.4748C65.9541 53.4344 65.7081 53.2708 65.3382 53.1072C73.218 45.4286 77.7313 35.993 81.4252 26.0263C81.5066 26.0263 81.6306 26.0667 81.9172 25.7395C82.0412 25.9839 82.2039 26.2707 82.3279 26.5151C83.5598 28.8841 84.7492 31.2935 85.9792 33.7048C88.4838 38.566 91.0271 43.4272 93.4891 48.3288C94.1864 49.6759 93.9811 50.4938 92.7491 51.433C92.2571 51.8409 91.6818 52.1681 91.0658 52.3721C90.0799 52.6993 89.0552 52.8205 88.0693 53.0668C87.2073 53.2708 86.3453 55.4762 86.9206 56.171C87.0852 56.375 87.4533 56.4981 87.7826 56.579C88.848 56.9465 89.9579 57.1505 90.9826 57.6009C92.2552 58.1724 92.8712 59.1943 92.8712 60.6242C92.9119 68.3451 92.9525 76.0641 93.0765 83.785C93.1579 89.0542 94.0625 94.2021 96.6465 98.8574C100.257 105.433 105.88 108.988 113.431 109.315C115.36 109.396 117.247 109.396 119.176 109.315C120.695 109.232 122.254 109.111 123.732 108.743C129.026 107.396 132.842 104.127 135.428 99.3885C137.973 94.6505 138.916 89.5045 138.998 84.2354C139.122 77.3323 139.038 70.4293 139.038 63.5263C139.038 59.891 141.09 57.3988 144.7 56.7041C145.522 56.5405 146.097 56.2133 145.973 55.3146C145.849 54.4159 145.07 54.4159 144.373 54.539L144.365 54.5371Z" fill="#D25C41"/>
<path d="M227.477 89.8755C227.231 89.7931 226.695 90.2014 226.49 90.5272C226.243 90.8108 226.243 91.2593 226.119 91.6675C224.596 97.2446 221.057 101.072 215.335 102.212C211.755 102.944 208.008 102.741 204.304 102.904C202.74 102.985 202.699 102.864 202.699 101.315C202.699 87.9609 202.74 74.5662 202.699 61.2118C202.659 58.199 203.933 57.0184 207.104 56.3668C207.886 56.2039 208.833 56.2441 208.792 55.1862C208.709 54.0056 207.68 54.2912 206.939 54.2912C201.752 54.3314 196.609 54.4541 191.422 54.4943C190.681 54.4943 189.899 54.3717 189.158 54.2912C189.158 54.2107 189.117 54.088 189.117 54.0056C192.575 53.1106 195.456 51.2362 198.173 49.0379C201.3 46.4736 203.73 43.4186 205.416 39.7964C207.762 34.7885 208.833 29.5372 208.627 24.0003C208.421 18.7892 207.352 13.8215 204.512 9.38476C199.614 1.7301 192.328 -1.24245 183.808 0.46902C178.746 1.4867 174.547 4.09319 171.378 8.24633C171.213 8.48973 171.132 8.73505 171.008 8.97845C170.886 8.9382 170.761 8.85579 170.68 8.7753C170.596 8.44949 170.433 8.08343 170.391 7.75762C170.144 4.13344 168.004 2.58679 165.206 2.18049C164.63 2.09999 164.054 2.01758 163.477 2.01758H151.665C150.964 2.05783 150.182 1.97734 150.058 2.99502C149.934 3.97245 150.718 4.05295 151.376 4.17561C154.792 4.78698 157.098 8.08343 157.055 11.1384C156.933 23.2298 156.933 35.3634 157.055 47.4549C157.055 50.7111 155.615 51.5256 153.229 52.4225C152.858 52.5452 152.447 52.6257 152.035 52.7081C150.266 53.1144 150.101 53.3597 150.225 55.1919C150.266 55.9241 150.636 56.2096 151.377 56.3323C152.284 56.4549 153.147 56.6178 153.97 56.9437C155.452 57.5953 156.44 58.613 156.44 60.3628V100.752C156.44 102.502 155.617 103.684 154.053 104.334C153.188 104.66 152.284 104.78 151.377 104.986C150.72 105.148 150.266 105.434 150.266 106.126C150.306 106.818 150.801 107.021 151.418 107.021C153.064 107.021 154.711 106.981 156.356 106.981H170.228C171.832 106.981 173.439 107.061 175.044 106.981C175.414 106.981 175.744 106.452 176.115 106.166C175.785 105.8 175.455 105.392 175.086 105.068C174.881 104.905 174.551 105.028 174.264 104.986C171.877 104.742 170.148 102.95 170.148 100.712V60.4049C170.148 59.1017 170.641 58.084 171.753 57.4324C172.576 56.9437 173.522 56.6178 174.429 56.4147C175.251 56.2518 176.033 56.1713 176.487 55.3146C176.611 55.0712 177.147 54.9485 177.475 54.9485C178.915 54.9083 180.397 54.868 181.88 54.9485C182.291 54.9888 182.661 55.397 183.073 55.6404C183.443 55.8838 183.812 56.1694 184.225 56.3323C185.256 56.6983 186.325 56.9015 187.312 57.35C188.465 57.8789 189.041 58.8966 189.082 60.1596C189.165 62.4805 189.288 64.7593 189.288 67.0802C189.288 71.8428 189.164 76.5671 189.123 81.3297C189.082 87.7213 189.082 94.1533 189.123 100.547C189.164 102.216 188.463 103.397 186.942 104.008C185.995 104.374 184.967 104.619 183.979 104.823C183.238 104.945 182.745 105.269 182.745 106.043C182.786 106.858 183.403 106.981 184.062 107.021H185.38C191.224 107.021 197.028 106.898 202.872 107.101C208.757 107.264 214.644 107.345 220.529 106.776C225.426 106.287 227.402 104.008 227.937 99.6499C228.267 97.1258 228.267 94.5615 228.389 92.0374C228.43 91.6292 228.514 91.1826 228.349 90.8146C228.184 90.4486 227.856 90.0001 227.485 89.8794L227.477 89.8755ZM182.737 50.4236C179.444 51.1557 176.152 51.2784 172.859 50.5463C171.13 50.1802 170.513 49.4059 170.513 47.6139V32.1437C170.513 27.4615 170.554 22.7794 170.513 18.0973C170.472 13.5781 172.859 10.688 176.728 8.89604C179.815 7.42989 182.902 7.79595 185.824 9.62816C189.241 11.7459 191.216 14.9619 192.74 18.5036C194.756 23.1858 195.497 28.071 195.169 33.1192C194.922 36.8641 194.057 40.448 192.123 43.7042C190.023 47.2862 186.812 49.4864 182.739 50.4217L182.737 50.4236Z" fill="#D25C41"/>
<path d="M287.814 76.1365C287.488 71.5817 286.471 67.2696 284.152 63.3647C279.84 56.1245 273.412 52.8312 265.031 53.7659C260.516 54.2953 256.53 56.2067 253.275 59.4598C252.299 60.4365 251.403 61.4534 250.306 62.6327C250.265 62.0631 250.223 61.7382 250.102 61.4132C249.736 57.9957 248.067 56.2468 244.651 55.7996C243.348 55.6371 242.088 55.597 240.786 55.597H231.022C230.372 55.597 229.842 55.7996 229.802 56.5316C229.762 57.1815 230.086 57.5083 230.738 57.6307C234.847 58.485 236.88 61.0482 236.88 65.236V93.7879C236.88 96.3911 236.84 98.9944 236.88 101.598C236.921 103.142 236.351 104.404 234.928 105.095C234.032 105.543 233.057 105.868 232.121 106.194C231.837 106.317 231.471 106.357 231.145 106.397C230.535 106.479 230.088 106.886 230.291 107.496C230.412 107.821 230.942 108.188 231.308 108.188C234.644 108.148 238.022 107.945 241.355 108.026C245.667 108.108 250.02 108.433 254.332 108.555C256.854 108.595 259.417 108.433 261.939 108.393C268.528 108.352 274.102 105.952 278.861 101.397C282.36 98.0215 284.8 94.0344 286.266 89.4395C287.649 85.1275 288.178 80.695 287.812 76.1403L287.814 76.1365ZM270.646 98.7096C268.327 101.882 264.991 103.429 261.208 104.161C258.402 104.73 255.636 104.648 252.828 104.161C251.161 103.876 250.388 102.981 250.388 101.313V81.5055H250.185V71.5396C250.185 67.6749 252.097 64.869 255.31 62.9978C259.459 60.5971 263.894 61.3311 267.351 64.6645C271.012 68.2024 272.884 72.6368 273.941 77.4763C274.388 79.3877 274.674 81.3411 274.714 83.2926C274.837 88.8241 273.982 94.1109 270.646 98.7077V98.7096Z" fill="#D25C41"/>
</svg>
