<svg width="236" height="221" viewBox="0 0 236 221" fill="none" xmlns="http://www.w3.org/2000/svg">
<path d="M235.741 209.106L192.138 166.187C206.294 149.601 214.816 128.213 214.816 104.86V104.822H197.799V104.86C197.799 118.541 194.248 131.405 188.011 142.61L149.681 104.88L210.326 45.1856L224.345 0L178.502 13.8509L117.857 73.545L57.2118 13.8586L11.3649 0L25.3801 45.1817L86.0252 104.876L47.6948 142.606C41.4545 131.398 37.9037 118.541 37.9037 104.857V104.818H20.8858V104.857C20.8858 128.221 29.4202 149.62 43.5803 166.203L0 209.106L12.0343 220.952L55.6341 178.038C71.736 191.301 92.2773 199.526 114.745 200.226V183.474C102.021 182.998 90.0615 179.585 79.5344 173.925L117.849 136.211L156.164 173.925C145.641 179.585 133.681 182.998 120.958 183.474V200.226C143.437 199.53 163.982 191.297 180.084 178.022L223.695 220.952L235.734 209.106H235.738H235.741ZM182.464 20.3391L205.487 13.3827L131.109 86.595L123.134 78.7449L182.468 20.3391H182.464ZM91.2633 110.107L99.2144 117.984L58.7386 157.823C56.1861 155.068 53.8372 152.135 51.6997 149.044L91.2633 110.103V110.107ZM31.9688 41.2895L24.9103 18.5362L171.69 163.015C168.872 165.541 165.873 167.87 162.71 169.987L31.9688 41.2895Z" fill="#29100A"/>
<path d="M31.9689 41.2895L24.9104 18.5362L171.69 163.015C168.872 165.541 165.873 167.87 162.71 169.987L31.9689 41.2895Z" fill="#F9F7E7"/>
<path d="M182.464 20.3391L205.487 13.3827L131.109 86.595L123.134 78.7449L182.468 20.3391H182.464Z" fill="#F9F7E7"/>
<path d="M91.2672 110.107L99.2183 117.984L58.7425 157.823C56.19 155.068 53.8411 152.135 51.7036 149.044L91.2672 110.103V110.107Z" fill="#F9F7E7"/>
</svg>
