<svg width="607" height="232" viewBox="0 0 607 232" fill="none" xmlns="http://www.w3.org/2000/svg">
<path d="M303.855 115.024C302.558 115.284 301.608 115.194 301.09 113.733C300.83 113.043 299.884 112.528 299.191 112.268C297.984 111.838 296.598 111.663 295.391 111.322C291.245 110.202 288.741 107.446 288.741 103.915V16.7263C288.741 14.4006 289.691 12.4198 291.677 11.3848C293.752 10.3498 296.08 9.65981 298.326 8.97386C299.794 8.54362 301.608 8.54362 301.523 6.4736C301.437 4.31835 299.447 4.57811 298.065 4.31835C297.809 4.23311 297.462 4.31835 297.201 4.31835C292.708 4.48882 288.13 4.83382 283.641 4.92312C277.334 5.00835 271.031 5.00835 264.724 4.92312C260.663 4.83788 256.517 4.66335 252.456 4.49288C251.249 4.49288 249.953 4.23311 248.827 4.49288C248.138 4.75264 247.013 5.7836 247.099 6.38837C247.184 7.24884 248.049 8.28385 248.827 8.62886C250.034 9.14433 251.592 9.14433 252.974 9.57457C257.984 11.0398 259.884 13.6253 259.884 18.7922V101.926C259.884 106.752 256.949 110.368 252.199 111.403C250.988 111.663 249.781 111.748 248.656 112.264C247.967 112.609 247.017 113.644 247.103 114.159C247.274 114.934 248.138 115.624 248.917 116.055C249.349 116.314 250.214 116.14 250.817 116.14C255.481 116.055 260.06 115.88 264.638 115.795C265.331 115.795 266.713 116.4 266.713 116.655C266.452 119.411 268.442 119.586 270.256 120.016C271.12 120.276 272.07 120.446 272.935 120.791C278.638 122.857 283.388 127.424 283.213 134.75C282.866 147.673 283.213 160.682 283.042 173.69C282.956 179.978 282.438 186.269 280.534 192.386C276.649 204.619 269.306 212.806 255.917 214.182C246.071 215.127 238.125 211.856 232.336 203.759C226.461 195.576 224.736 186.098 224.476 176.451C224.043 160.597 224.39 144.747 224.39 128.897C224.39 124.846 226.375 122.265 230.179 120.97C231.733 120.454 233.29 120.28 234.758 119.679C235.536 119.334 236.572 118.734 236.918 117.954C237.522 116.489 238.386 116.144 239.768 116.229C240.633 116.314 241.583 116.229 242.533 116.229C243.739 116.229 245.125 116.144 245.297 114.504C245.468 112.779 244.176 112.523 242.793 112.264C236.229 110.884 231.304 107.352 228.198 101.321C224.312 93.8243 220.423 86.3317 216.452 78.835C207.47 61.6903 198.485 44.5457 189.417 27.4051C186.568 21.9784 183.803 16.5517 180.521 11.3808C177.239 6.12454 172.229 3.45381 165.84 3.45381C156.426 3.53905 147.012 3.45381 137.595 3.45381C136.991 3.45381 136.384 3.36857 135.866 3.53905C135.263 3.88405 134.398 4.31429 134.313 4.82976C134.137 5.43453 134.398 6.38025 134.83 6.89572C135.263 7.4112 136.127 7.58573 136.902 7.7562C143.466 9.30669 148.994 12.3224 152.447 18.3539C157.111 26.5365 161.69 34.7233 166.183 42.9912C166.615 43.9369 166.872 45.4021 166.443 46.3519C162.468 55.4843 158.669 64.6168 154.265 73.4894C150.034 82.1916 144.42 90.0293 136.73 96.146C130.252 101.228 123.085 102.693 115.224 100.367C108.917 98.4717 104.082 94.3357 99.5888 89.8588C92.7639 82.9669 87.3252 75.1252 82.918 66.427C80.8428 62.4656 81.5359 59.1048 85.1644 56.4341C87.5821 54.6239 90.0894 52.9029 92.5927 51.1779C99.0711 46.6969 104.167 41.185 107.449 33.948C112.028 24.0403 109.696 11.8069 101.921 5.86477C93.9748 -0.166693 84.9035 -1.02717 75.4897 0.953552C67.8005 2.58927 61.5831 6.89978 56.3156 12.4117C51.7371 17.1484 47.8477 22.5792 43.7054 27.6608C43.3589 28.0911 42.9267 28.5213 42.5842 28.9516C42.413 28.9516 42.2377 28.8663 42.0665 28.7811C42.0665 25.5056 42.1521 22.2341 42.0665 18.9587C41.9809 14.8227 40.5988 11.2915 37.3168 8.5355C34.6382 6.38025 31.5315 5.43453 28.1639 5.3493C19.6144 5.17882 11.1465 5.08953 2.68266 4.91906C2.33612 4.91906 1.90396 4.83382 1.64711 5.00429C1.04372 5.43453 0.00815256 5.95001 0.00815256 6.55478C-0.0774644 7.24478 0.525931 8.1905 1.12933 8.79527C1.64711 9.22551 2.51144 9.22551 3.20453 9.40004C9.85412 10.9505 14.9504 17.0672 14.9504 23.8739V102.441C14.9504 106.577 12.9649 109.248 9.25073 110.713C7.26523 111.488 5.01878 111.919 2.85797 112.438C1.21902 112.783 0.697183 113.989 1.30058 115.109C1.64712 115.799 3.11483 116.314 4.06477 116.314C13.9107 116.229 23.7608 115.969 33.6026 115.969C39.7344 115.969 45.7847 116.229 51.9124 116.4C53.2089 116.485 54.3301 116.055 54.5054 114.504C54.6766 112.954 53.5555 112.609 52.3446 112.349C50.4447 111.833 48.3736 111.403 46.6449 110.539C43.2773 108.814 42.4986 105.713 42.4986 102.182C42.5843 85.2114 42.5843 68.152 42.4986 51.1819C42.413 47.2205 42.7596 43.5148 44.9163 40.0688C45.695 38.6888 46.384 37.2276 47.2483 35.9328C51.309 29.6456 56.23 24.2149 63.2261 21.0287C67.8046 19.0479 72.0365 19.6487 75.7506 22.8389C83.868 29.9054 84.9932 42.8247 77.9971 51.0115C75.4041 54.0272 72.2118 56.5234 69.1011 59.1089C66.5081 61.2641 63.6623 63.0703 60.9837 65.1404C56.234 68.8461 55.2841 72.3773 58.3052 77.5442C61.4159 82.9709 64.8691 88.1419 68.4977 93.2236C75.9259 103.562 84.822 112.178 96.311 117.861C96.7431 118.121 97.1753 118.551 97.7787 118.981C96.5719 119.842 95.6178 120.446 94.6679 121.047C86.1184 126.559 79.5545 133.796 75.0616 142.928C69.362 154.472 67.8943 166.705 69.0154 179.369C69.8798 189.362 72.383 198.839 77.5649 207.537C85.511 220.891 97.4321 228.903 112.546 230.884C121.009 232.089 129.995 232.264 138.545 230.368C149.084 227.957 159.101 224.422 167.74 217.62C170.158 215.639 171.54 213.313 171.454 210.042C171.193 201.684 171.108 193.242 171.022 184.885C170.936 180.319 173.007 176.958 177.068 174.977C178.104 174.547 179.4 174.547 180.35 173.946C181.043 173.516 181.647 172.481 181.647 171.706C181.647 171.19 180.525 170.24 179.832 170.155C177.932 169.985 175.947 170.155 174.047 170.24C166.704 170.415 159.362 170.756 152.023 170.756C144.685 170.756 137.513 170.326 130.256 170.066C128.788 169.981 127.406 170.236 127.406 172.132C127.321 173.857 128.703 173.942 129.999 174.372C132.935 175.318 135.874 176.008 138.463 177.473C141.488 179.194 143.735 181.954 143.735 185.831C143.82 196.513 143.735 207.196 143.82 217.879C143.82 219.604 143.131 220.465 141.659 221.24C134.317 224.946 125.421 222.62 119.546 218.054C112.635 212.627 108.232 205.475 105.297 197.378C99.5073 181.613 98.1252 165.504 101.065 149.049C102.361 141.382 105.125 134.23 110.136 128.114C112.9 124.668 116.358 122.342 120.846 121.051C125.857 119.586 130.607 119.07 135.617 120.361C144.428 122.602 151.334 127.769 156.867 134.75C159.37 137.851 161.099 141.471 163.084 145.002C163.773 146.208 164.291 147.413 165.934 147.158C167.662 146.987 167.316 145.522 167.406 144.317V142.851C167.145 133.203 166.802 123.466 166.541 113.818C166.456 113.648 166.541 113.388 166.456 113.213C166.024 112.523 165.506 111.488 164.988 111.403C164.295 111.318 163.349 111.919 162.742 112.438C162.224 112.954 162.138 113.729 161.706 114.334C159.545 117.349 156.524 116.834 153.503 116.059C148.753 114.939 144 113.903 139.25 112.783C138.818 112.698 138.3 112.353 137.521 112.008C154.106 95.8132 163.606 75.9126 171.381 54.8917C171.552 54.8917 171.813 54.977 172.416 54.287C172.677 54.8024 173.02 55.4072 173.281 55.9227C175.874 60.9191 178.377 66.0008 180.966 71.0866C186.237 81.3393 191.59 91.5919 196.772 101.93C198.24 104.771 197.808 106.496 195.215 108.477C194.179 109.337 192.968 110.027 191.672 110.458C189.597 111.148 187.44 111.403 185.365 111.923C183.551 112.353 181.736 117.004 182.947 118.47C183.294 118.9 184.068 119.16 184.761 119.33C187.004 120.105 189.34 120.536 191.497 121.485C194.175 122.691 195.472 124.846 195.472 127.862C195.557 144.146 195.643 160.426 195.904 176.71C196.075 187.823 197.979 198.681 203.418 208.499C211.017 222.368 222.853 229.865 238.745 230.555C242.806 230.726 246.777 230.726 250.837 230.555C254.034 230.381 257.316 230.125 260.426 229.35C271.569 226.508 279.601 219.612 285.043 209.619C290.401 199.627 292.386 188.773 292.557 177.66C292.818 163.101 292.643 148.542 292.643 133.983C292.643 126.315 296.96 121.059 304.56 119.594C306.289 119.249 307.5 118.559 307.239 116.664C306.978 114.768 305.339 114.768 303.871 115.028L303.855 115.024Z" fill="#29100A"/>
<path d="M478.786 189.556C478.268 189.382 477.14 190.243 476.708 190.93C476.189 191.528 476.189 192.474 475.927 193.335C472.722 205.098 465.273 213.17 453.229 215.575C445.694 217.119 437.808 216.691 430.012 217.034C426.72 217.204 426.634 216.949 426.634 213.683C426.634 185.518 426.72 157.267 426.634 129.101C426.549 122.747 429.232 120.257 435.905 118.883C437.551 118.539 439.544 118.624 439.458 116.393C439.282 113.903 437.118 114.505 435.558 114.505C424.641 114.59 413.815 114.849 402.898 114.933C401.338 114.933 399.693 114.675 398.132 114.505C398.132 114.335 398.047 114.077 398.047 113.903C405.324 112.015 411.389 108.062 417.106 103.425C423.69 98.0171 428.803 91.5739 432.352 83.9342C437.289 73.3721 439.544 62.2966 439.111 50.6188C438.678 39.6282 436.428 29.1509 430.449 19.7933C420.141 3.64894 404.806 -2.62044 386.873 0.989206C376.218 3.13559 367.38 8.63292 360.711 17.3923C360.364 17.9056 360.193 18.423 359.931 18.9364C359.674 18.8515 359.413 18.6777 359.241 18.5079C359.065 17.8207 358.722 17.0487 358.633 16.3615C358.114 8.7178 353.609 5.45579 347.72 4.59885C346.507 4.42908 345.294 4.25527 344.081 4.25527H319.218C317.744 4.34015 316.098 4.17038 315.837 6.31676C315.576 8.37826 317.225 8.54803 318.61 8.80673C325.802 10.0962 330.653 17.0487 330.564 23.4919C330.306 48.9938 330.306 74.5847 330.564 100.087C330.564 106.954 327.533 108.672 322.51 110.564C321.73 110.823 320.864 110.992 319.998 111.166C316.274 112.023 315.927 112.541 316.188 116.405C316.274 117.949 317.054 118.551 318.614 118.81C320.521 119.069 322.339 119.412 324.07 120.099C327.19 121.474 329.269 123.62 329.269 127.311V212.495C329.269 216.185 327.537 218.679 324.246 220.05C322.424 220.737 320.521 220.992 318.614 221.424C317.23 221.768 316.274 222.37 316.274 223.829C316.36 225.288 317.401 225.717 318.7 225.717C322.163 225.717 325.63 225.632 329.093 225.632H358.29C361.667 225.632 365.048 225.802 368.426 225.632C369.206 225.632 369.9 224.516 370.68 223.914C369.986 223.142 369.292 222.281 368.516 221.598C368.083 221.254 367.389 221.513 366.784 221.424C361.761 220.911 358.122 217.131 358.122 212.41V127.399C358.122 124.651 359.159 122.504 361.499 121.13C363.231 120.099 365.224 119.412 367.131 118.984C368.863 118.64 370.509 118.47 371.464 116.664C371.726 116.15 372.853 115.891 373.543 115.891C376.573 115.807 379.693 115.722 382.814 115.891C383.679 115.976 384.459 116.837 385.325 117.351C386.105 117.864 386.881 118.466 387.751 118.81C389.92 119.582 392.17 120.01 394.249 120.956C396.674 122.072 397.887 124.218 397.973 126.882C398.149 131.777 398.406 136.583 398.406 141.478C398.406 151.523 398.145 161.487 398.059 171.532C397.973 185.012 397.973 198.578 398.059 212.062C398.145 215.583 396.67 218.073 393.469 219.363C391.476 220.135 389.311 220.652 387.232 221.08C385.672 221.339 384.635 222.022 384.635 223.655C384.721 225.373 386.019 225.632 387.408 225.717H390.181C402.482 225.717 414.697 225.458 426.998 225.887C439.384 226.23 451.775 226.4 464.162 225.199C474.47 224.169 478.627 219.363 479.754 210.171C480.448 204.847 480.448 199.439 480.706 194.115C480.792 193.254 480.967 192.312 480.62 191.536C480.273 190.764 479.583 189.818 478.803 189.564L478.786 189.556ZM384.619 106.348C377.688 107.892 370.758 108.151 363.827 106.607C360.189 105.835 358.89 104.202 358.89 100.422V67.7939C358.89 57.9189 358.976 48.0439 358.89 38.1689C358.804 28.6375 363.827 22.542 371.971 18.7626C378.468 15.6703 384.966 16.4424 391.116 20.3067C398.308 24.7732 402.465 31.556 405.671 39.0259C409.915 48.9009 411.475 59.2043 410.785 69.8513C410.266 77.7497 408.444 85.3085 404.373 92.1762C399.954 99.7309 393.195 104.371 384.623 106.344L384.619 106.348Z" fill="#29100A"/>
<path d="M605.779 160.579C605.093 150.972 602.953 141.878 598.072 133.642C588.996 118.372 575.467 111.426 557.828 113.397C548.324 114.514 539.935 118.545 533.083 125.406C531.028 127.466 529.143 129.611 526.834 132.098C526.749 130.897 526.66 130.211 526.406 129.526C525.635 122.318 522.122 118.63 514.932 117.686C512.19 117.344 509.538 117.259 506.797 117.259H486.247C484.878 117.259 483.764 117.686 483.679 119.23C483.594 120.601 484.276 121.29 485.649 121.548C494.297 123.35 498.577 128.756 498.577 137.589V197.807C498.577 203.298 498.492 208.788 498.577 214.279C498.661 217.536 497.462 220.197 494.467 221.656C492.581 222.599 490.53 223.285 488.56 223.974C487.963 224.232 487.191 224.317 486.505 224.401C485.221 224.575 484.28 225.433 484.708 226.719C484.963 227.404 486.077 228.178 486.848 228.178C493.869 228.094 500.979 227.666 507.996 227.836C517.071 228.009 526.232 228.694 535.308 228.952C540.617 229.037 546.011 228.694 551.32 228.61C565.188 228.525 576.921 223.462 586.937 213.855C594.301 206.736 599.436 198.327 602.521 188.636C605.432 179.542 606.546 170.193 605.775 160.587L605.779 160.579ZM569.645 208.188C564.764 214.879 557.743 218.141 549.782 219.685C543.875 220.886 538.053 220.713 532.143 219.685C528.634 219.084 527.007 217.197 527.007 213.678V171.902H526.579V150.884C526.579 142.732 530.604 136.815 537.367 132.868C546.1 127.805 555.434 129.353 562.709 136.383C570.416 143.845 574.357 153.198 576.581 163.405C577.522 167.436 578.124 171.556 578.208 175.672C578.467 187.338 576.666 198.488 569.645 208.184V208.188Z" fill="#29100A"/>
</svg>
